# xmcd
#
# Track frame offsets:
#	150
#	12167
#	24032
#	39347
#	51960
#	66845
#	79232
#	97567
#	107777
#	117822
#	130205
#	143250
#	155515
#	169680
#
# Disc length: 2593 seconds
#
# Revision: 1
# Processed by: cddbd v1.5.1PL2 Copyright (c) Steve Scherf et al.
# Submitted via: dBpowerAMP V4.0
#
DISCID=9e0a1f0e
DTITLE=Jim and Jesse and The Virginia Boys - Tribute To Bill Monroe
DYEAR=1995
DGENRE=Bluegrass
TTITLE0=Will You Be lovin' Another Man
TTITLE1=How Will I Explain About You
TTITLE2=Footprints in The Snow
TTITLE3=True Life Blues
TTITLE4=A Mansion for Me
TTITLE5=I'm Goin' Back to Old Kentucky
TTITLE6=Rock Road Blues
TTITLE7=Uncle Pen
TTITLE8=Summertime Is Past and Gone
TTITLE9=Little Cabin Home On The Hill
TTITLE10=Mighty Dark to Travel
TTITLE11=Blue Moon of Kentucky
TTITLE12=When You're Lonley
TTITLE13=Orange Blossom Special
EXTD=AMI 9502
EXTT0=
EXTT1=
EXTT2=
EXTT3=
EXTT4=
EXTT5=
EXTT6=
EXTT7=
EXTT8=
EXTT9=
EXTT10=
EXTT11=
EXTT12=
EXTT13=
PLAYORDER=
